# AST/ASF file generated using VICON BodyLanguage
# -----------------------------------------------
:version 1.10
:name VICON
:units
  mass 1.0
  length 0.45
  angle deg
:documentation
   .ast/.asf automatically generated from VICON data using
   VICON BodyBuilder and BodyLanguage model FoxedUp or BRILLIANT.MOD
:root
   order TX TY TZ RX RY RZ
   axis XYZ
   position 0 0 0  
   orientation 0 0 0 
:bonedata
  begin
     id 1 
     name lhipjoint
     direction 0.62366 -0.717238 0.310833 
     length 2.53602 
     axis 0 0 0  XYZ
  end
  begin
     id 2 
     name lfemur
     direction 0.34202 -0.939693 0  
     length 7.40817  
     axis 0 0 20  XYZ
    dof rx ry rz
    limits (-160.0 20.0)
           (-70.0 70.0)
           (-60.0 70.0)
  end
  begin
     id 3 
     name ltibia
     direction 0.34202 -0.939693 0   
     length 7.7045   
     axis 0 0 20   XYZ
    dof rx
    limits (-10.0 170.0)
  end
  begin
     id 4 
     name lfoot
     direction 0.0673888 -0.185149 0.980397   
     length 2.09456   
     axis -90 7.62852e-016 20   XYZ
    dof rx rz
    limits (-45.0 90.0)
           (-70.0 20.0)
  end
  begin
     id 5 
     name ltoes
     direction 1.53575e-011 -4.21994e-011 1   
     length 1.05543   
     axis -90 7.62852e-016 20   XYZ
    dof rx
    limits (-90.0 20.0)
  end
  begin
     id 6 
     name rhipjoint
     direction -0.489018 -0.800347 0.346851   
     length 2.27268  
     axis 0 0 0  XYZ 
  end
  begin
     id 7 
     name rfemur
     direction -0.34202 -0.939693 0   
     length 7.55487   
     axis 0 0 -20   XYZ
    dof rx ry rz
    limits (-160.0 20.0)
           (-70.0 70.0)
           (-70.0 60.0)
  end
  begin
     id 8 
     name rtibia
     direction -0.34202 -0.939693 0   
     length 7.78969   
     axis 0 0 -20   XYZ
    dof rx
    limits (-10.0 170.0)
 end
 begin
     id 9 
     name rfoot
     direction -0.0859318 -0.236096 0.967923   
     length 2.19143  
     axis -90 -7.62852e-016 -20   XYZ
    dof rx rz
    limits (-45.0 90.0)
           (-20.0 70.0)
  end
  begin
     id 10 
     name rtoes
     direction -1.53538e-011 -4.21989e-011 1   
     length 1.09845   
     axis -90 -7.62852e-016 -20   XYZ
    dof rx
    limits (-90.0 20.0)
  end
  begin
     id 11 
     name lowerback
     direction -0.00762546 0.998978 -0.0445553   
     length 1.98161   
     axis 0 0 0   XYZ
    dof rx ry rz
    limits (-20.0 45.0)
           (-30.0 30.0)
           (-30.0 30.0)
  end
  begin
     id 12 
     name upperback
     direction 0.0422361 0.998867 -0.0219156   
     length 1.97558   
     axis 0 0 0   XYZ
    dof rx ry rz
    limits (-20.0 45.0)
           (-30.0 30.0)
           (-30.0 30.0)
  end
  begin
     id 13 
     name thorax
     direction 0.0442465 0.999021 7.47603e-005   
     length 1.97799   
     axis 0 0 0   XYZ
    dof rx ry rz
    limits (-20.0 45.0)
           (-30.0 30.0)
           (-30.0 30.0)
  end
  begin
     id 14 
     name lowerneck
     direction 0.00312169 0.984641 0.174564   
     length 1.78995   
     axis 0 0 0   XYZ
    dof rx ry rz
    limits (-20.0 45.0)
           (-30.0 30.0)
           (-30.0 30.0)
  end
  begin
     id 15 
     name upperneck
     direction -0.0383028 0.985255 -0.166749   
     length 1.83053   
     axis 0 0 0   XYZ
    dof rx ry rz
    limits (-20.0 45.0)
           (-30.0 30.0)
           (-30.0 30.0)
  end
  begin
     id 16
     name head
     direction -0.0129546 0.997059 -0.0755386  
     length 1.84088  
     axis 0 0 0   XYZ
    dof rx ry rz
    limits (-20.0 45.0)
           (-30.0 30.0)
           (-30.0 30.0)
  end
  begin
     id 17 
     name lclavicle
     direction 0.912857 0.370519 -0.171488  
     length 3.51279  
     axis 0 0 0   XYZ
    dof ry rz
    limits (-20.0 10.0)
           (0.0 20.0)
  end
  begin
     id 18 
     name lhumerus
     direction 1 -4.48962e-011 3.64361e-027   
     length 4.95663   
     axis 180 -30 -90   XYZ
    dof rx ry rz
    limits (-60.0 90.0)
           (-90.0 90.0)
           (-90.0 90.0)
  end
  begin
     id 19
     name lradius
     direction 1 -4.48974e-011 5.97202e-027   
     length 3.38177   
     axis 180 -30 -90   XYZ
    dof rx
    limits (-10.0 170.0)
  end
  begin
     id 20
     name lwrist
     direction 1 -4.4896e-011 9.83288e-027   
     length 1.69088   
     axis -9.31221e-015 90 90   XYZ
    dof ry
    limits (-180.0 0.0)
 end
  begin
     id 21 
     name lhand
     direction 1 -4.4902e-011 1.96551e-026   
     length 0.662909   
     axis -1.25475e-014 90 90   XYZ
    dof rx rz
    limits (-90.0 90.0)
           (-45.0 45.0)
  end
  begin
     id 22 
     name lfingers
     direction 1 -4.48971e-011 3.93277e-026   
     length 0.534454   
     axis -2.50945e-014 90 90   XYZ
    dof rx
    limits (0.0 90.0)
  end
  begin
     id 23
     name lthumb
     direction 0.707107 -6.34933e-011 0.707107   
     length 0.767373   
     axis -90 45 -4.80359e-014   XYZ
    dof rx rz
    limits (-45.0 45.0)
           (-45.0 45.0)
  end
  begin
     id 24 
     name rclavicle
     direction -0.900919 0.395364 -0.178976   
     length 3.40627  
     axis 0 0 0   XYZ 
    dof ry rz
    limits (-10.0 20.0)
           (-20.0 0.0)
  end
  begin
     id 25 
     name rhumerus
     direction -1 -4.48969e-011 1.03875e-027  
     length 5.08365   
     axis 180 30 90   XYZ
    dof rx ry rz
    limits (-90.0 60.0)
           (-90.0 90.0)
           (-90.0 90.0)
  end
  begin
     id 26 
     name rradius
     direction -1 -4.48951e-011 5.02733e-027   
     length 3.35984   
     axis 180 30 90   XYZ
    dof rx
    limits (-10.0 170.0)
  end
  begin
     id 27 
     name rwrist
     direction -1 -4.49011e-011 9.82828e-027   
     length 1.67992   
     axis -9.31221e-015 -90 -90   XYZ
    dof ry
    limits (-180.0 0.0)
  end
  begin
     id 28
     name rhand
     direction -1 -4.48894e-011 1.96774e-026   
     length 0.820764   
     axis -1.25475e-014 -90 -90   XYZ
    dof rx rz
    limits (-90.0 90.0)
           (-45.0 45.0)
  end
  begin
     id 29
     name rfingers
     direction -1 -4.49095e-011 3.92833e-026   
     length 0.661721   
     axis -2.50945e-014 -90 -90   XYZ
    dof rx
    limits (0.0 90.0)
  end
  begin
     id 30
     name rthumb
     direction -0.707107 -6.34881e-011 0.707107   
     length 0.950103   
     axis -90 -45 4.80359e-014   XYZ
    dof rx rz
    limits (-45.0 45.0)
           (-45.0 45.0)
  end
:hierarchy
  begin
    root lhipjoint rhipjoint lowerback
    lhipjoint lfemur
    lfemur ltibia
    ltibia lfoot
    lfoot ltoes
    rhipjoint rfemur
    rfemur rtibia
    rtibia rfoot
    rfoot rtoes
    lowerback upperback
    upperback thorax
    thorax lowerneck lclavicle rclavicle
    lowerneck upperneck
    upperneck head
    lclavicle lhumerus
    lhumerus lradius
    lradius lwrist
    lwrist lhand lthumb
    lhand lfingers
    rclavicle rhumerus
    rhumerus rradius
    rradius rwrist
    rwrist rhand rthumb
    rhand rfingers
  end

#!OML:ASF I:\golf\golf\golf 2\Subject 1\2002-09-07\Subject1.ASF
:FULLY-SPECIFIED
:DEGREES
100
root -7.40612 17.7775 0.884499 -11.9546 77.0112 -26.3813
lowerback 3.25148 1.99887 -7.62484
upperback 3.56935 2.56131 2.22183
thorax 1.45606 1.12385 6.54509
lowerneck -14.401 3.13537 1.84413
upperneck 35.6844 6.96639 -4.00314
head 15.0612 3.03397 -0.719036
rclavicle -7.95139e-015 -2.18663e-014
rhumerus -12.6349 2.60632 -101.62
rradius 41.0889
rwrist -56.9726
rhand -35.8486 -13.0678
rfingers 7.12502
rthumb -8.96371 -42.8573
lclavicle -7.95139e-015 -2.18663e-014
lhumerus 5.21208 -73.1612 92.644
lradius 26.551
lwrist 38.0153
lhand 11.5243 61.8859
lfingers 7.12502
lthumb -143.429 -91.9399
rfemur -32.8545 4.44923 16.6627
rtibia 32.8069
rfoot -10.0676 -0.402356
rtoes 3.09417
lfemur -23.4031 9.35899 -4.87365
ltibia 27.8188
lfoot -11.6514 4.78275
ltoes -25.2819
101
root -7.41218 17.771 0.918953 -11.4752 76.3245 -25.8909
lowerback 3.23924 1.90602 -7.84709
upperback 3.57297 2.43502 2.04091
thorax 1.48844 1.05573 6.48547
lowerneck -14.3007 3.43917 1.97066
upperneck 35.4932 7.36213 -4.04652
head 14.9722 3.20821 -0.69572
rclavicle 4.13472e-014 -1.66979e-014
rhumerus -12.7799 2.32665 -101.354
rradius 41.9524
rwrist -57.9481
rhand -37.0803 -12.9437
rfingers 7.12502
rthumb -10.1521 -42.6788
lclavicle 4.13472e-014 -1.66979e-014
lhumerus 6.74646 -73.8643 91.3846
lradius 26.4505
lwrist 37.419
lhand 12.0929 60.899
lfingers 7.12502
lthumb -142.891 -93.0647
rfemur -33.0471 4.54753 16.9927
rtibia 32.9752
rfoot -10.1594 0.301895
rtoes 3.81488
lfemur -22.9182 9.25219 -4.45313
ltibia 27.7003
lfoot -11.8265 5.34505
ltoes -25.044
102
root -7.41756 17.7608 0.955685 -10.8111 75.6317 -25.1767
lowerback 3.22351 1.82599 -8.11676
upperback 3.58867 2.32684 1.80689
thorax 1.53322 0.995508 6.39628
lowerneck -14.2001 3.72513 2.15914
upperneck 35.3211 7.71197 -4.08217
head 14.8938 3.37259 -0.688142
rclavicle 2.06736e-014 1.27222e-014
rhumerus -12.9865 2.15358 -101.072
rradius 42.9493
rwrist -58.7713
rhand -38.2048 -13.3294
rfingers 7.12502
rthumb -11.2368 -43.0085
lclavicle 2.06736e-014 1.27222e-014
lhumerus 8.35838 -74.5973 90.0205
lradius 26.3882
lwrist 36.7889
lhand 12.5672 59.9609
lfingers 7.12502
lthumb -142.443 -94.1207
rfemur -33.2041 4.592 17.2716
rtibia 33.1379
rfoot -10.2355 1.12819
rtoes 5.55735
lfemur -22.2858 9.04833 -4.0141
ltibia 27.5945
lfoot -12.3166 5.71617
ltoes -23.7598
103
root -7.4247 17.7503 0.990566 -10.2433 74.9606 -24.5611
lowerback 3.1956 1.62585 -8.37616
upperback 3.64269 2.06253 1.63527
thorax 1.65029 0.852549 6.37312
lowerneck -14.063 4.12193 2.12403
upperneck 35.0003 8.25658 -4.08424
head 14.7349 3.5949 -0.597473
rclavicle 6.36111e-015 7.15625e-015
rhumerus -13.1528 2.07299 -100.84
rradius 43.9328
rwrist -59.2171
rhand -39.3802 -13.6887
rfingers 7.12502
rthumb -12.3703 -43.3028
lclavicle 6.36111e-015 7.15625e-015
lhumerus 10.7428 -75.2169 87.9171
lradius 26.3232
lwrist 36.0324
lhand 13.1605 58.9635
lfingers 7.12502
lthumb -141.883 -95.2693
rfemur -33.3396 4.49012 17.5911
rtibia 33.2612
rfoot -10.2186 1.98481
rtoes 5.9276
lfemur -21.7868 8.91316 -3.64486
ltibia 27.5248
lfoot -12.6617 6.07595
ltoes -21.8906
104
root -7.4319 17.7473 1.0215 -9.72507 74.3001 -24.0584
lowerback 3.14157 1.26876 -8.65768
upperback 3.66783 1.58958 1.53311
thorax 1.78704 0.603458 6.44079
lowerneck -13.8917 4.6402 2.07455
upperneck 34.6406 9.04703 -4.26815
head 14.5751 3.89767 -0.539671
rclavicle -1.07344e-014 -5.56597e-015
rhumerus -13.3621 2.16816 -100.611
rradius 44.8838
rwrist -59.7387
rhand -40.4745 -13.8044
rfingers 7.12502
rthumb -13.4252 -43.3518
lclavicle -1.07344e-014 -5.56597e-015
lhumerus 13.1134 -75.2646 85.864
lradius 26.1573
lwrist 34.6769
lhand 14.2932 58.6853
lfingers 7.12502
lthumb -140.814 -95.8481
rfemur -33.5022 4.40784 17.9138
rtibia 33.3338
rfoot -10.1659 2.76103
rtoes 5.73543
lfemur -21.587 9.08632 -3.47009
ltibia 27.5009
lfoot -12.4238 6.81156
ltoes -22.6357
105
root -7.43648 17.7447 1.05821 -9.64082 73.4973 -24.0481
lowerback 3.07658 0.91027 -8.91665
upperback 3.61481 1.11163 1.44163
thorax 1.85183 0.357495 6.50358
lowerneck -13.6871 5.20965 2.29989
upperneck 34.376 9.89397 -4.57263
head 14.483 4.24607 -0.568843
rclavicle -2.70347e-014 4.53229e-014
rhumerus -13.7222 2.57836 -100.31
rradius 45.9501
rwrist -60.5866
rhand -41.3467 -14.2082
rfingers 7.12502
rthumb -14.2657 -43.6982
lclavicle -2.70347e-014 4.53229e-014
lhumerus 15.2375 -75.3539 83.9137
lradius 26.0589
lwrist 33.3752
lhand 15.644 58.7158
lfingers 7.12502
lthumb -139.543 -96.1978
rfemur -33.6583 4.56693 18.3976
rtibia 33.3432
rfoot -10.1402 3.47365
rtoes 6.31196
lfemur -21.3953 9.47309 -3.12886
ltibia 27.5341
lfoot -12.0549 7.6296
ltoes -24.5189
106
root -7.44031 17.7356 1.10066 -9.79007 72.6105 -24.2177
lowerback 3.04321 0.583185 -9.14871
upperback 3.55774 0.673238 1.33859
thorax 1.89027 0.133679 6.53538
lowerneck -13.4061 5.79751 2.55451
upperneck 34.0969 10.7309 -4.79973
head 14.3688 4.60828 -0.576303
rclavicle -3.97569e-015 -3.81667e-014
rhumerus -14.1511 2.77888 -100.116
rradius 47.0863
rwrist -61.2031
rhand -42.5066 -14.4649
rfingers 7.12502
rthumb -15.3832 -43.8726
lclavicle -3.97569e-015 -3.81667e-014
lhumerus 17.722 -75.6982 81.5345
lradius 26.014
lwrist 32.4398
lhand 16.8975 58.4891
lfingers 7.12502
lthumb -138.365 -96.7996
rfemur -33.7136 4.88002 18.9602
rtibia 33.3055
rfoot -10.0996 4.13469
rtoes 7.1828
lfemur -20.9065 9.5867 -2.488
ltibia 27.6015
lfoot -12.4399 7.96677
ltoes -22.9976
107
root -7.44479 17.731 1.1433 -9.59907 71.7575 -23.9707
lowerback 3.04882 0.279767 -9.4402
upperback 3.52514 0.264845 1.1649
thorax 1.9296 -0.0757914 6.52392
lowerneck -13.0853 6.37355 2.81026
upperneck 33.751 11.5183 -4.97264
head 14.2141 4.96044 -0.573502
rclavicle 5.84427e-014 -2.38542e-014
rhumerus -14.5589 2.60344 -99.9966
rradius 48.2728
rwrist -61.6
rhand -43.836 -14.2934
rfingers 7.12502
rthumb -16.6633 -43.5981
lclavicle 5.84427e-014 -2.38542e-014
lhumerus 20.3932 -76.0662 78.9843
lradius 25.9305
lwrist 31.4852
lhand 17.4849 57.3056
lfingers 7.12502
lthumb -137.815 -98.1668
rfemur -33.7053 5.08715 19.4275
rtibia 33.2822
rfoot -10.0341 4.72093
rtoes 7.47311
lfemur -20.4519 9.91311 -2.08133
ltibia 27.6437
lfoot -12.5482 8.34466
ltoes -22.6725
108
root -7.44664 17.7277 1.18406 -9.31808 70.8991 -23.5727
lowerback 3.08516 0.0414286 -9.75094
upperback 3.51734 -0.0578699 0.967003
thorax 1.96371 -0.242545 6.4953
lowerneck -12.8408 6.9071 3.06833
upperneck 33.4718 12.2373 -5.10426
head 14.1049 5.28695 -0.562807
rclavicle 1.27222e-014 -4.77083e-015
rhumerus -14.9373 2.59927 -99.7414
rradius 49.5557
rwrist -62.2436
rhand -45.0736 -13.9163
rfingers 7.12502
rthumb -17.8545 -43.1167
lclavicle 1.27222e-014 -4.77083e-015
lhumerus 22.6251 -76.2151 77.0653
lradius 25.7659
lwrist 29.9135
lhand 17.7006 54.9023
lfingers 7.12502
lthumb -137.613 -100.639
rfemur -33.64 5.16011 19.8957
rtibia 33.2983
rfoot -10.0599 5.23285
rtoes 6.3013
lfemur -20.0053 10.3685 -1.82491
ltibia 27.64
lfoot -12.1958 9.04505
ltoes -24.183
109
root -7.44623 17.7139 1.22293 -9.01666 70.0318 -23.0998
lowerback 3.18554 -0.189309 -10.0526
upperback 3.51601 -0.376432 0.764133
thorax 1.96891 -0.405247 6.45575
lowerneck -12.651 7.44087 3.22464
upperneck 33.2152 12.9722 -5.1944
head 14.0115 5.61184 -0.514015
rclavicle 1.82882e-014 1.59028e-014
rhumerus -15.2932 2.55106 -99.4643
rradius 50.8789
rwrist -62.7982
rhand -46.2011 -13.5898
rfingers 7.12502
rthumb -18.9391 -42.6878
lclavicle 1.82882e-014 1.59028e-014
lhumerus 24.3297 -76.0428 75.8332
lradius 25.5647
lwrist 27.7662
lhand 18.42 53.2424
lfingers 7.12502
lthumb -136.939 -102.533
rfemur -33.5199 5.35134 20.2684
rtibia 33.3307
rfoot -10.1711 5.70093
rtoes 5.45528
lfemur -19.2537 10.3543 -1.43424
ltibia 27.6076
lfoot -12.4044 9.62635
ltoes -23.9634
110
root -7.44946 17.6975 1.26498 -8.6642 69.2178 -22.6993
lowerback 3.15468 -0.442643 -10.2965
upperback 3.52303 -0.708548 0.535623
thorax 2.05845 -0.577478 6.35466
lowerneck -12.476 7.96376 3.4014
upperneck 32.847 13.677 -5.32578
head 13.8786 5.92331 -0.490952
rclavicle 4.37326e-014 2.38542e-014
rhumerus -15.504 1.99778 -99.2165
rradius 52.1963
rwrist -62.8818
rhand -47.0487 -13.6826
rfingers 7.12502
rthumb -19.7541 -42.6988
lclavicle 4.37326e-014 2.38542e-014
lhumerus 27.7733 -76.3286 72.7443
lradius 25.5136
lwrist 26.2402
lhand 18.9224 52.0387
lfingers 7.12502
lthumb -136.47 -103.905
rfemur -33.5472 5.56331 20.606
rtibia 33.3728
rfoot -10.2577 6.21305
rtoes 5.79181
lfemur -18.6431 10.2732 -1.04242
ltibia 27.5609
lfoot -12.6868 10.1565
ltoes -23.3335
